<svg xmlns="http://www.w3.org/2000/svg" viewBox="0 0 100 100">
  <!-- Background circle -->
  <circle cx="50" cy="50" r="45" fill="#ffd208"/>
  
  <!-- Server rack base -->
  <rect x="30" y="25" width="40" height="50" fill="#e5e7eb" stroke="#6b7280" stroke-width="1.5" rx="2"/>
  
  <!-- Server unit 1 -->
  <rect x="32" y="28" width="36" height="12" fill="#f3f4f6" stroke="#9ca3af" stroke-width="0.5" rx="1"/>
  <circle cx="35" cy="34" r="1.5" fill="#10b981"/>
  <line x1="40" y1="34" x2="42" y2="34" stroke="#6b7280" stroke-width="0.5"/>
  <line x1="44" y1="34" x2="46" y2="34" stroke="#6b7280" stroke-width="0.5"/>
  <line x1="48" y1="34" x2="50" y2="34" stroke="#6b7280" stroke-width="0.5"/>
  <line x1="52" y1="34" x2="54" y2="34" stroke="#6b7280" stroke-width="0.5"/>
  <line x1="56" y1="34" x2="58" y2="34" stroke="#6b7280" stroke-width="0.5"/>
  <line x1="60" y1="34" x2="62" y2="34" stroke="#6b7280" stroke-width="0.5"/>
  
  <!-- Server unit 2 -->
  <rect x="32" y="42" width="36" height="12" fill="#f3f4f6" stroke="#9ca3af" stroke-width="0.5" rx="1"/>
  <circle cx="35" cy="48" r="1.5" fill="#10b981"/>
  <line x1="40" y1="48" x2="42" y2="48" stroke="#6b7280" stroke-width="0.5"/>
  <line x1="44" y1="48" x2="46" y2="48" stroke="#6b7280" stroke-width="0.5"/>
  <line x1="48" y1="48" x2="50" y2="48" stroke="#6b7280" stroke-width="0.5"/>
  <line x1="52" y1="48" x2="54" y2="48" stroke="#6b7280" stroke-width="0.5"/>
  <line x1="56" y1="48" x2="58" y2="48" stroke="#6b7280" stroke-width="0.5"/>
  <line x1="60" y1="48" x2="62" y2="48" stroke="#6b7280" stroke-width="0.5"/>
  
  <!-- Server unit 3 -->
  <rect x="32" y="56" width="36" height="12" fill="#f3f4f6" stroke="#9ca3af" stroke-width="0.5" rx="1"/>
  <circle cx="35" cy="62" r="1.5" fill="#10b981"/>
  <line x1="40" y1="62" x2="42" y2="62" stroke="#6b7280" stroke-width="0.5"/>
  <line x1="44" y1="62" x2="46" y2="62" stroke="#6b7280" stroke-width="0.5"/>
  <line x1="48" y1="62" x2="50" y2="62" stroke="#6b7280" stroke-width="0.5"/>
  <line x1="52" y1="62" x2="54" y2="62" stroke="#6b7280" stroke-width="0.5"/>
  <line x1="56" y1="62" x2="58" y2="62" stroke="#6b7280" stroke-width="0.5"/>
  <line x1="60" y1="62" x2="62" y2="62" stroke="#6b7280" stroke-width="0.5"/>
</svg>

