<svg xmlns="http://www.w3.org/2000/svg" viewBox="0 0 512 512">
  <!-- Background circle -->
  <circle cx="256" cy="256" r="230" fill="#ffd208"/>
  
  <!-- Server rack base -->
  <rect x="150" y="120" width="212" height="272" fill="#e5e7eb" stroke="#6b7280" stroke-width="8" rx="12"/>
  
  <!-- Server unit 1 -->
  <rect x="160" y="140" width="192" height="64" fill="#f3f4f6" stroke="#9ca3af" stroke-width="3" rx="6"/>
  <circle cx="180" cy="172" r="8" fill="#10b981"/>
  <line x1="200" y1="172" x2="210" y2="172" stroke="#6b7280" stroke-width="2"/>
  <line x1="220" y1="172" x2="230" y2="172" stroke="#6b7280" stroke-width="2"/>
  <line x1="240" y1="172" x2="250" y2="172" stroke="#6b7280" stroke-width="2"/>
  <line x1="260" y1="172" x2="270" y2="172" stroke="#6b7280" stroke-width="2"/>
  <line x1="280" y1="172" x2="290" y2="172" stroke="#6b7280" stroke-width="2"/>
  <line x1="300" y1="172" x2="310" y2="172" stroke="#6b7280" stroke-width="2"/>
  <line x1="320" y1="172" x2="330" y2="172" stroke="#6b7280" stroke-width="2"/>
  
  <!-- Server unit 2 -->
  <rect x="160" y="220" width="192" height="64" fill="#f3f4f6" stroke="#9ca3af" stroke-width="3" rx="6"/>
  <circle cx="180" cy="252" r="8" fill="#10b981"/>
  <line x1="200" y1="252" x2="210" y2="252" stroke="#6b7280" stroke-width="2"/>
  <line x1="220" y1="252" x2="230" y2="252" stroke="#6b7280" stroke-width="2"/>
  <line x1="240" y1="252" x2="250" y2="252" stroke="#6b7280" stroke-width="2"/>
  <line x1="260" y1="252" x2="270" y2="252" stroke="#6b7280" stroke-width="2"/>
  <line x1="280" y1="252" x2="290" y2="252" stroke="#6b7280" stroke-width="2"/>
  <line x1="300" y1="252" x2="310" y2="252" stroke="#6b7280" stroke-width="2"/>
  <line x1="320" y1="252" x2="330" y2="252" stroke="#6b7280" stroke-width="2"/>
  
  <!-- Server unit 3 -->
  <rect x="160" y="300" width="192" height="64" fill="#f3f4f6" stroke="#9ca3af" stroke-width="3" rx="6"/>
  <circle cx="180" cy="332" r="8" fill="#10b981"/>
  <line x1="200" y1="332" x2="210" y2="332" stroke="#6b7280" stroke-width="2"/>
  <line x1="220" y1="332" x2="230" y2="332" stroke="#6b7280" stroke-width="2"/>
  <line x1="240" y1="332" x2="250" y2="332" stroke="#6b7280" stroke-width="2"/>
  <line x1="260" y1="332" x2="270" y2="332" stroke="#6b7280" stroke-width="2"/>
  <line x1="280" y1="332" x2="290" y2="332" stroke="#6b7280" stroke-width="2"/>
  <line x1="300" y1="332" x2="310" y2="332" stroke="#6b7280" stroke-width="2"/>
  <line x1="320" y1="332" x2="330" y2="332" stroke="#6b7280" stroke-width="2"/>
</svg>

